<svg width="167" height="162" viewBox="0 0 167 162" fill="none" xmlns="http://www.w3.org/2000/svg">
<path d="M9.44289 42.0783C6.59264 38.6884 7.0357 33.6345 10.4325 30.7901C13.8293 27.9457 18.8935 28.3878 21.7438 31.7777L64.1774 82.2448C67.0277 85.6346 66.5846 90.6885 63.1878 93.533C59.791 96.3774 54.7267 95.9352 51.8765 92.5454L9.44289 42.0783Z" fill="black"/>
<path d="M45.8403 13.2335C42.9901 9.84364 43.4331 4.78975 46.8299 1.94532C50.2267 -0.89911 55.291 -0.456952 58.1412 2.93291L100.575 53.4C103.425 56.7898 102.982 61.8437 99.5852 64.6882C96.1884 67.5326 91.1242 67.0904 88.2739 63.7006L45.8403 13.2335Z" fill="black"/>
<path d="M80.11 16.0249C75.6758 16.0249 72.0812 12.4376 72.0812 8.01244C72.0812 3.58729 75.6758 0 80.11 0H117.578C122.012 0 125.607 3.58729 125.607 8.01244C125.607 12.4376 122.012 16.0249 117.578 16.0249H80.11Z" fill="black"/>
<path d="M83.6784 145.648C88.1126 145.648 91.7073 149.236 91.7073 153.661C91.7073 158.086 88.1126 161.673 83.6784 161.673H46.2105C41.7763 161.673 38.1816 158.086 38.1816 153.661C38.1816 149.236 41.7763 145.648 46.2105 145.648H83.6784Z" fill="black"/>
<path d="M102.234 39.8842C97.7998 39.8842 94.2051 36.2969 94.2051 31.8717C94.2051 27.4466 97.7998 23.8593 102.234 23.8593H139.702C144.136 23.8593 147.731 27.4466 147.731 31.8717C147.731 36.2969 144.136 39.8842 139.702 39.8842H102.234Z" fill="black"/>
<path d="M62.9818 122.857C67.416 122.857 71.0107 126.445 71.0107 130.87C71.0107 135.295 67.416 138.882 62.9818 138.882H25.5139C21.0797 138.882 17.485 135.295 17.485 130.87C17.485 126.445 21.0797 122.857 25.5139 122.857H62.9818Z" fill="black"/>
<path d="M121.503 63.7434C117.069 63.7434 113.474 60.1561 113.474 55.731C113.474 51.3058 117.069 47.7185 121.503 47.7185H158.971C163.405 47.7185 167 51.3058 167 55.731C167 60.1561 163.405 63.7434 158.971 63.7434H121.503Z" fill="black"/>
<path d="M45.4968 98.9982C49.931 98.9982 53.5256 102.585 53.5256 107.011C53.5256 111.436 49.931 115.023 45.4968 115.023H8.02884C3.59464 115.023 0 111.436 0 107.011C0 102.585 3.59464 98.9982 8.02885 98.9982H45.4968Z" fill="black"/>
<path d="M65.4664 108.671C62.6161 105.281 63.0592 100.227 66.456 97.3824C69.8528 94.538 74.917 94.9801 77.7673 98.37L120.201 148.837C123.051 152.227 122.608 157.281 119.211 160.125C115.814 162.97 110.75 162.528 107.9 159.138L65.4664 108.671Z" fill="black"/>
<path d="M103.187 81.0728C100.337 77.683 100.78 72.6291 104.177 69.7846C107.573 66.9402 112.638 67.3824 115.488 70.7722L157.922 121.239C160.772 124.629 160.329 129.683 156.932 132.527C153.535 135.372 148.471 134.93 145.621 131.54L103.187 81.0728Z" fill="black"/>
<path d="M27.9945 28.2779C25.1443 24.8881 25.5874 19.8342 28.9842 16.9898C32.381 14.1453 37.4452 14.5875 40.2955 17.9774L82.7291 68.4444C85.5793 71.8343 85.1362 76.8882 81.7394 79.7326C78.3426 82.577 73.2784 82.1349 70.4281 78.745L27.9945 28.2779Z" fill="black"/>
<path d="M84.815 96.0332C81.9647 92.6433 82.4078 87.5894 85.8046 84.745C89.2014 81.9006 94.2656 82.3427 97.1159 85.7326L139.549 136.2C142.4 139.59 141.957 144.643 138.56 147.488C135.163 150.332 130.099 149.89 127.249 146.5L84.815 96.0332Z" fill="black"/>
</svg>
